<?xml version="1.0" encoding="utf-8"?>
<!-- Generator: Adobe Illustrator 27.1.1, SVG Export Plug-In . SVG Version: 6.00 Build 0)  -->
<svg version="1.1" id="Layer_1" xmlns="http://www.w3.org/2000/svg" xmlns:xlink="http://www.w3.org/1999/xlink" x="0px" y="0px"
	 viewBox="0 0 125 125" style="enable-background:new 0 0 125 125;" xml:space="preserve">
<style type="text/css">
	.st0{fill:#3F5057;}
</style>
<g>
	<path class="st0" d="M118.7,7.7c-4-4.7-9.4-7.7-15.3-7.7H21.6c-6,0-11.3,3-15.3,7.7C2.4,12.6,0,19.2,0,26.4v72.2
		c0,7.2,2.4,13.8,6.3,18.6c4,4.7,9.4,7.7,15.3,7.7h82c5.9,0,11.3-3,15.2-7.7s6.3-11.4,6.3-18.6V26.4C125,19.1,122.6,12.5,118.7,7.7z
		 M59.2,22.3c0-1,0.6-1.9,1.3-2.5c0.7-0.4,1.6-0.7,2.5-0.7c1,0,1.9,0.3,2.5,0.7c0.9,0.6,1.3,1.5,1.3,2.5v27.9c0,1-0.6,1.9-1.3,2.5
		c-0.7,0.4-1.6,0.7-2.5,0.7c-1,0-1.9-0.3-2.5-0.7c-0.9-0.6-1.3-1.5-1.3-2.5V22.3z M97.5,83c-1.9,4.6-4.7,8.7-8.1,12.1
		c-3.4,3.4-7.5,6.2-12.1,8.1c-4.4,1.8-9.2,2.8-14.2,2.8c-5,0-9.9-1-14.2-2.8c-4.6-1.9-8.7-4.7-12.1-8.1c-3.4-3.4-6.2-7.5-8.1-12.1
		c-1.8-4.4-2.8-9.2-2.8-14.2c0-7.5,1.9-14.5,5.6-20.1c3.7-5.5,9-9.8,16.1-12.3h0.1c1-0.3,2.1-0.3,2.8,0.1c0.9,0.4,1.6,1.2,2.1,2.2
		s0.3,2.1-0.1,3v0.1c-0.4,0.9-1.2,1.5-2.2,1.9c-5.5,1.9-9.5,5.2-12.3,9.3c-2.8,4.3-4.3,9.6-4.3,15.5c0,4,0.7,7.8,2.2,11.2
		c1.5,3.5,3.7,6.8,6.4,9.6c2.7,2.7,5.9,4.9,9.6,6.4c3.4,1.5,7.2,2.2,11.2,2.2s7.8-0.7,11.2-2.2c3.5-1.5,6.8-3.7,9.6-6.4
		c2.8-2.7,4.9-5.9,6.4-9.6c1.5-3.4,2.2-7.2,2.2-11.2c0-6.1-1.5-11.4-4.3-15.5s-6.8-7.2-12.3-9.3l-0.1-0.1c-0.9-0.4-1.6-1.2-2.1-1.9
		c-0.4-0.9-0.4-2.1-0.1-3c0.4-1,1.2-1.8,2.1-2.2s1.9-0.4,3-0.1C85.5,39,91,43.2,94.7,48.7c3.7,5.6,5.6,12.4,5.6,20.1
		C100.3,73.8,99.3,78.7,97.5,83z"/>
</g>
</svg>
