<?xml version="1.0" encoding="utf-8"?>
<!-- Generator: Adobe Illustrator 27.1.1, SVG Export Plug-In . SVG Version: 6.00 Build 0)  -->
<svg version="1.1" id="Layer_1" xmlns="http://www.w3.org/2000/svg" xmlns:xlink="http://www.w3.org/1999/xlink" x="0px" y="0px"
	 viewBox="0 0 101.5 122.9" style="enable-background:new 0 0 101.5 122.9;" xml:space="preserve">
<style type="text/css">
	.st0{fill:#3F5057;}
</style>
<path class="st0" d="M56.8,21.7c27.9,3.3,47.8,28.7,44.4,56.5c-3.3,27.9-28.7,47.8-56.5,44.4S-3,94,0.3,66.1
	c2.9-24.2,22.6-43,46.9-44.6V13c0-0.1,0-0.3,0-0.4h-9.5c-1.6,0-2.8-1.3-2.8-2.8c0,0,0,0,0,0V2.8c0-1.6,1.3-2.8,2.8-2.8h28.6
	c1.6,0,2.8,1.3,2.8,2.8v6.9c0,1.6-1.3,2.8-2.8,2.8l0,0h-9.5c0,0.1,0,0.3,0,0.4L56.8,21.7L56.8,21.7z M50.8,72.4L84.5,62
	c-4.5-14.9-18.2-25-33.8-25V72.4z M96.3,37.1c2-4.7,1.7-9.6-1.1-12.9c-3.4-4-9.5-4.4-15.2-1.6C86.1,26.6,91.6,31.5,96.3,37.1z
	 M5.2,37.1c-2-4.7-1.7-9.6,1.1-12.9c3.4-4,9.5-4.4,15.2-1.6C15.4,26.6,9.9,31.5,5.2,37.1z M80.9,42c-16.6-16.6-43.6-16.6-60.2,0
	s-16.6,43.6,0,60.2s43.6,16.6,60.2,0c8-8,12.5-18.8,12.5-30.1C93.4,60.8,88.9,50,80.9,42z"/>
</svg>
