<?xml version="1.0" encoding="utf-8"?>
<!-- Generator: Adobe Illustrator 27.1.1, SVG Export Plug-In . SVG Version: 6.00 Build 0)  -->
<svg version="1.1" id="Layer_1" xmlns="http://www.w3.org/2000/svg" xmlns:xlink="http://www.w3.org/1999/xlink" x="0px" y="0px"
	 viewBox="0 0 122.9 55.3" style="enable-background:new 0 0 122.9 55.3;" xml:space="preserve">
<style type="text/css">
	.st0{fill:#3F5057;}
</style>
<path class="st0" d="M94.7,4.1h0.5c13,0,23.6,10.6,23.6,23.6v0.6c0,0.1,0,0.2,0,0.3l0,0c0,0.1,0,0.2,0,0.3l0,0v0.3l0,0v0.3l0,0
	c0,0.1,0,0.2,0,0.3l0,0c0,0.3-0.1,0.6-0.1,0.9l0,0c-1.4,11-10.3,19.5-21.3,20.5l0,0h-0.3l0,0h-0.3l0,0h-0.3l0,0h-0.3h-1.5
	c-13,0-23.6-10.6-23.6-23.6C71.1,14.6,81.7,4,94.7,4.1L94.7,4.1z M22,27.7c0-3.4,0.6-5.9,1.9-7.5s3.6-2.3,6.9-2.3s5.6,0.8,6.9,2.3
	s1.9,4,1.9,7.5c0,1.5-0.1,2.9-0.4,4.3c-0.2,1.1-0.7,2.1-1.4,3c-0.7,0.9-1.6,1.5-2.7,1.9c-1.4,0.4-2.8,0.6-4.3,0.6
	c-1.5,0-2.9-0.2-4.3-0.6c-1.1-0.3-2-1-2.7-1.9c-0.7-0.9-1.1-1.9-1.4-3C22.1,30.6,22,29.1,22,27.7z M28.4,24.6v7.8h2.5
	c0.6,0,1.2-0.1,1.8-0.3c0.4-0.2,0.5-0.6,0.5-1.3V23h-2.5c-0.6,0-1.2,0.1-1.8,0.3C28.6,23.5,28.4,23.9,28.4,24.6L28.4,24.6z M53.1,37
	l-4.6-6.6c-0.2-0.4-0.3-0.9-0.3-1.4h-0.1V37h-6V18.3h5.6l4.6,6.7c0.2,0.4,0.3,0.9,0.3,1.4h0.1v-8.1h6V37H53.1z M95.2,0H27.7
	C12.4,0,0,12.4,0,27.7C0,43,12.4,55.3,27.7,55.3h68.6h0.3l0,0H97l0,0h0.3l0,0h0.3l0,0c12.8-1.2,23.1-11,24.9-23.7l0,0
	c0-0.2,0-0.4,0.1-0.7l0,0c0-0.2,0-0.5,0.1-0.7l0,0v-0.4l0,0c0-0.1,0-0.2,0-0.4l0,0v-0.4l0,0c0-0.1,0-0.2,0-0.4l0,0
	c0-0.1,0-0.2,0-0.4l0,0c0-0.1,0-0.2,0-0.4v-0.4C122.8,12.5,110.5,0.1,95.2,0z"/>
</svg>
